<?xml version="1.0" standalone="no"?>
<!DOCTYPE svg PUBLIC "-//W3C//DTD SVG 20010904//EN"
 "http://www.w3.org/TR/2001/REC-SVG-20010904/DTD/svg10.dtd">
<svg version="1.0" xmlns="http://www.w3.org/2000/svg"
 width="512.000000pt" height="512.000000pt" viewBox="0 0 512.000000 512.000000"
 preserveAspectRatio="xMidYMid meet">

<g transform="translate(0.000000,512.000000) scale(0.100000,-0.100000)"
fill="#000000" stroke="none">
<path d="M2 3918 c1 -662 3 -1185 5 -1163 27 319 111 631 247 910 135 279 276
476 500 701 447 446 963 685 1616 747 19 2 -506 5 -1167 5 l-1203 2 2 -1202z"/>
<path d="M2805 5109 c307 -30 592 -112 880 -254 283 -140 495 -294 711 -518
195 -201 334 -398 458 -648 139 -278 226 -582 255 -889 5 -49 9 427 10 1118
l1 1202 -1202 -1 c-743 -1 -1169 -5 -1113 -10z"/>
<path d="M2340 4914 c-583 -70 -1044 -287 -1438 -677 -364 -359 -595 -808
-679 -1322 -26 -156 -26 -554 0 -710 97 -589 396 -1108 852 -1480 257 -209
575 -369 907 -455 203 -53 317 -65 588 -65 274 1 389 15 623 80 800 219 1447
877 1652 1680 59 232 70 323 70 595 0 275 -11 369 -71 600 -209 805 -851 1455
-1654 1676 -214 59 -337 76 -590 79 -124 2 -241 1 -260 -1z m286 -1108 l34
-34 0 -556 0 -556 581 0 581 0 34 -34 c46 -46 46 -86 0 -132 l-34 -34 -581 0
-581 0 -2 -610 -3 -610 -28 -27 c-38 -38 -96 -38 -134 0 l-28 27 -3 610 -2
610 -581 0 -581 0 -34 34 c-46 46 -46 86 0 132 l34 34 581 0 581 0 0 551 c0
497 2 554 17 579 35 59 99 66 149 16z"/>
<path d="M2 1203 l-2 -1203 1203 1 c690 1 1166 5 1117 10 -198 19 -451 76
-635 143 -124 46 -375 168 -475 232 -321 204 -619 502 -824 824 -82 128 -202
386 -255 545 -64 193 -107 405 -124 610 -2 22 -4 -501 -5 -1162z"/>
<path d="M5107 2313 c-21 -277 -114 -603 -253 -882 -124 -250 -263 -447 -458
-648 -210 -218 -417 -370 -691 -509 -288 -145 -590 -233 -905 -263 -49 -5 427
-9 1118 -10 l1202 -1 0 1200 c0 660 -2 1200 -4 1200 -1 0 -6 -39 -9 -87z"/>
</g>
</svg>
